<?xml version="1.0" encoding="UTF-8"?>
<svg id="Layer_1" xmlns="http://www.w3.org/2000/svg" xmlns:xlink="http://www.w3.org/1999/xlink" version="1.1" viewBox="0 0 1417.32 1417.32">
  <!-- Generator: Adobe Illustrator 29.0.0, SVG Export Plug-In . SVG Version: 2.1.0 Build 186)  -->
  <defs>
    <style>
      .st0 {
        fill: url(#linear-gradient2);
      }

      .st1 {
        fill: url(#linear-gradient1);
      }

      .st2 {
        fill: url(#linear-gradient);
      }

      .st3 {
        fill: #1e1e36;
      }
    </style>
    <linearGradient id="linear-gradient" x1="617.43" y1="493.48" x2="408.3" y2="931.87" gradientTransform="translate(-229.46 322.08) rotate(-27.23)" gradientUnits="userSpaceOnUse">
      <stop offset="0" stop-color="#5e1581"/>
      <stop offset=".04" stop-color="#69178a"/>
      <stop offset=".2" stop-color="#971eac"/>
      <stop offset=".37" stop-color="#bc25c8"/>
      <stop offset=".53" stop-color="#d92ade"/>
      <stop offset=".69" stop-color="#ee2eee"/>
      <stop offset=".85" stop-color="#fa30f7"/>
      <stop offset="1" stop-color="#ff31fb"/>
    </linearGradient>
    <linearGradient id="linear-gradient1" x1="732.2" y1="1031.08" x2="537.3" y2="666.7" gradientUnits="userSpaceOnUse">
      <stop offset="0" stop-color="#641684"/>
      <stop offset=".12" stop-color="#6e178c"/>
      <stop offset=".42" stop-color="#831b9c"/>
      <stop offset=".72" stop-color="#8f1da6"/>
      <stop offset="1" stop-color="#941eaa"/>
    </linearGradient>
    <linearGradient id="linear-gradient2" x1="560.63" y1="278.23" x2="965.13" y2="1041.15" gradientUnits="userSpaceOnUse">
      <stop offset="0" stop-color="#641684"/>
      <stop offset=".02" stop-color="#691788"/>
      <stop offset=".19" stop-color="#971eab"/>
      <stop offset=".35" stop-color="#bc25c8"/>
      <stop offset=".52" stop-color="#d92ade"/>
      <stop offset=".68" stop-color="#ee2eee"/>
      <stop offset=".84" stop-color="#fa30f7"/>
      <stop offset="1" stop-color="#ff31fb"/>
    </linearGradient>
  </defs>
  <g>
    <path class="st3" d="M449.94,1161.59v80h-28.71v-54.57l-22.37,7.82v-25.43l22.37-7.82h28.71Z"/>
    <path class="st3" d="M705.2,1161.3h28.71v42.98c.11,30.25-22.64,38.94-50.2,39-27.56-.06-50.31-8.75-50.21-39v-42.98h28.66v41.02c-.11,13.16,9.79,15.42,21.55,15.6,11.7-.18,21.66-2.44,21.49-15.6v-41.02Z"/>
    <path class="st3" d="M811.04,1241.43v-54.65h-34.07v-25.36h96.8v25.36h-34.07v54.65h-28.66Z"/>
    <path class="st3" d="M945.6,1213.99v27.33h-28.66v-80.02h28.66v27.33h43.04v-27.33h28.71v80.02h-28.71v-27.33h-43.04Z"/>
    <polygon class="st3" points="572.39 1241.58 604.66 1241.58 565.23 1161.36 531.15 1161.36 491.72 1241.58 523.99 1241.58 528.6 1230.65 528.6 1230.65 528.61 1230.65 529.79 1227.86 529.79 1227.86 538.11 1208.28 538.1 1208.28 548.22 1184.58 556.6 1204.33 558.28 1208.28 558.28 1208.28 566.58 1227.86 566.59 1227.86 568.16 1231.57 568.17 1231.59 568.17 1231.59 572.39 1241.58"/>
  </g>
  <rect class="st2" x="397.76" y="135.61" width="304.64" height="998.11" rx="152.32" ry="152.32" transform="translate(351.41 -181.37) rotate(27.23)"/>
  <path class="st1" d="M439.46,787.63c0,8.82,2.11,17.52,6.14,25.37l102.77,199.68c24.47,47.55,70.51,76.76,120.01,81.84h31.12c18.34-1.89,36.63-7.17,54.01-16.11h0c74.8-38.5,104.23-130.34,65.73-205.14l-64.95-126.2h-277.82c-20.44,0-37.01,16.57-37.01,37.01v3.56Z"/>
  <path class="st0" d="M1161.35,873.27l-317.34-616.6c-38.5-74.8-130.34-104.23-205.14-65.73h0c-55.08,26.93-80.03,93.75-80.03,93.75l-75.73,147c48.01-61.63,92.3-21.82,116.18,15.22l291.18,565.77s0,0,0,.01c0,0,0,0,0-.01l-81.22-157.81h-.38l9.47,18.4c38.5,74.8,9.07,166.64-65.73,205.14h0c-17.38,8.94-35.68,14.22-54.01,16.11h311.88s0,0,0,0c31.22.89,57.88-2.09,85.13-16.11h0c74.8-38.5,104.23-130.34,65.73-205.14ZM892.62,1016.68c.23.41.46.81.69,1.22-.23-.41-.46-.81-.69-1.22ZM894.91,1020.67c.26.44.52.87.78,1.3-.26-.43-.52-.87-.78-1.3ZM897.44,1024.8c.21.34.42.68.64,1.01-.22-.33-.43-.67-.64-1.01ZM900.56,1029.53c.14.21.29.41.43.62-.14-.21-.29-.41-.43-.62ZM903.15,1033.16c.27.37.55.74.83,1.11-.28-.37-.55-.74-.83-1.11ZM905.9,1036.8c.28.36.56.72.84,1.08-.28-.36-.56-.72-.84-1.08ZM909.08,1040.74c.15.18.3.36.45.54-.15-.18-.3-.36-.45-.54ZM912.45,1044.64c.21.23.42.46.63.69-.21-.23-.42-.46-.63-.69ZM915.45,1047.89c.29.31.59.61.88.92-.29-.31-.59-.61-.88-.92ZM918.67,1051.18c.26.26.52.52.78.77-.26-.25-.52-.51-.78-.77ZM1005.79,1093.96c.05,0,.1.01.15.02-.05,0-.1-.01-.15-.02ZM925.94,1057.94c.23.2.46.39.69.59-.23-.2-.46-.39-.69-.59ZM929.34,1060.8c.28.23.55.45.83.67-.28-.22-.55-.45-.83-.67ZM933.1,1063.78c.17.13.33.26.5.39-.17-.13-.33-.26-.5-.39ZM940.85,1069.35c.22.15.44.29.65.43-.22-.14-.44-.29-.65-.43ZM944.64,1071.81c.22.14.44.28.65.41-.22-.14-.44-.27-.65-.41ZM953.09,1076.76s0,0,0,0c0,0,0,0,0,0ZM956.98,1078.8c.18.09.36.18.54.27-.18-.09-.36-.18-.54-.27ZM961.18,1080.85c.11.05.22.11.34.16-.11-.05-.23-.11-.34-.16ZM969.93,1084.62s.05.02.07.03c-.02,0-.05-.02-.07-.03ZM974.11,1086.2c.12.04.25.09.37.13-.12-.04-.25-.09-.37-.13ZM987.57,1090.38s.07.02.11.03c-.04,0-.07-.02-.11-.03ZM992.02,1091.47c.06.01.12.03.18.04-.06-.01-.12-.03-.18-.04Z"/>
</svg>