<?xml version="1.0" encoding="UTF-8"?>
<svg id="Layer_1" data-name="Layer 1" xmlns="http://www.w3.org/2000/svg" xmlns:xlink="http://www.w3.org/1999/xlink" viewBox="0 0 939.13 921.32">
  <defs>
    <style>
      .cls-1 {
        fill: url(#linear-gradient-2);
      }

      .cls-2 {
        fill: url(#linear-gradient-3);
      }

      .cls-3 {
        fill: url(#linear-gradient);
      }
    </style>
    <linearGradient id="linear-gradient" x1="378.33" y1="614.48" x2="169.2" y2="176.09" gradientTransform="translate(0 934) scale(1 -1)" gradientUnits="userSpaceOnUse">
      <stop offset="0" stop-color="#5e1581"/>
      <stop offset=".04" stop-color="#69178a"/>
      <stop offset=".2" stop-color="#971eac"/>
      <stop offset=".37" stop-color="#bc25c8"/>
      <stop offset=".53" stop-color="#d92ade"/>
      <stop offset=".69" stop-color="#ee2eee"/>
      <stop offset=".85" stop-color="#fa30f7"/>
      <stop offset="1" stop-color="#ff31fb"/>
    </linearGradient>
    <linearGradient id="linear-gradient-2" x1="493.07" y1="76.89" x2="298.17" y2="441.27" gradientTransform="translate(0 933.97) scale(1 -1)" gradientUnits="userSpaceOnUse">
      <stop offset="0" stop-color="#641684"/>
      <stop offset=".12" stop-color="#6e178c"/>
      <stop offset=".42" stop-color="#831b9c"/>
      <stop offset=".72" stop-color="#8f1da6"/>
      <stop offset="1" stop-color="#941eaa"/>
    </linearGradient>
    <linearGradient id="linear-gradient-3" x1="321.51" y1="829.74" x2="726.01" y2="66.82" gradientTransform="translate(0 933.97) scale(1 -1)" gradientUnits="userSpaceOnUse">
      <stop offset="0" stop-color="#641684"/>
      <stop offset=".02" stop-color="#691788"/>
      <stop offset=".19" stop-color="#971eab"/>
      <stop offset=".35" stop-color="#bc25c8"/>
      <stop offset=".52" stop-color="#d92ade"/>
      <stop offset=".68" stop-color="#ee2eee"/>
      <stop offset=".84" stop-color="#fa30f7"/>
      <stop offset="1" stop-color="#ff31fb"/>
    </linearGradient>
  </defs>
  <path class="cls-3" d="M539.35,16.91h0c74.8,38.49,104.24,130.33,65.74,205.14l-317.31,616.62c-38.49,74.8-130.33,104.24-205.14,65.74h0c-74.8-38.49-104.24-130.33-65.74-205.14L334.22,82.66C372.71,7.85,464.55-21.58,539.35,16.91Z"/>
  <path class="cls-1" d="M200.34,613.63c0,8.82,2.11,17.52,6.14,25.37l102.77,199.68c24.47,47.55,70.51,76.76,120.01,81.84h31.12c18.34-1.89,36.63-7.17,54.01-16.11h0c74.8-38.5,104.23-130.34,65.73-205.14l-64.95-126.2H237.35c-20.44,0-37.01,16.57-37.01,37.01v3.56h0Z"/>
  <path class="cls-2" d="M922.23,699.27L604.89,82.67C566.39,7.87,474.55-21.56,399.75,16.94h0c-55.08,26.93-80.03,93.75-80.03,93.75l-75.73,147c48.01-61.63,92.3-21.82,116.18,15.22l291.18,565.77h0s0,.01,0,0l-81.22-157.81h-.38l9.47,18.4c38.5,74.8,9.07,166.64-65.73,205.14h0c-17.38,8.94-35.68,14.22-54.01,16.11h311.88c31.22.89,57.88-2.09,85.13-16.11h0c74.8-38.5,104.23-130.34,65.73-205.14h.01ZM653.5,842.68c.23.41.46.81.69,1.22-.23-.41-.46-.81-.69-1.22ZM655.79,846.67c.26.44.52.87.78,1.3-.26-.43-.52-.87-.78-1.3ZM658.32,850.8c.21.34.42.68.64,1.01-.22-.33-.43-.67-.64-1.01ZM661.44,855.53c.14.21.29.41.43.62-.14-.21-.29-.41-.43-.62ZM664.03,859.16c.27.37.55.74.83,1.11-.28-.37-.55-.74-.83-1.11ZM666.78,862.8c.28.36.56.72.84,1.08-.28-.36-.56-.72-.84-1.08ZM669.96,866.74c.15.18.3.36.45.54-.15-.18-.3-.36-.45-.54ZM673.33,870.64c.21.23.42.46.63.69-.21-.23-.42-.46-.63-.69ZM676.33,873.89c.29.31.59.61.88.92-.29-.31-.59-.61-.88-.92ZM679.55,877.18c.26.26.52.52.78.77-.26-.25-.52-.51-.78-.77ZM766.67,919.96s.1.01.15.02c-.05,0-.1-.01-.15-.02ZM686.82,883.94c.23.2.46.39.69.59-.23-.2-.46-.39-.69-.59ZM690.22,886.8c.28.23.55.45.83.67-.28-.22-.55-.45-.83-.67ZM693.98,889.78c.17.13.33.26.5.39-.17-.13-.33-.26-.5-.39ZM701.73,895.35c.22.15.44.29.65.43-.22-.14-.44-.29-.65-.43ZM705.52,897.81c.22.14.44.28.65.41-.22-.14-.44-.27-.65-.41ZM713.97,902.76h0ZM717.86,904.8c.18.09.36.18.54.27-.18-.09-.36-.18-.54-.27ZM722.06,906.85c.11.05.22.11.34.16-.11-.05-.23-.11-.34-.16ZM730.81,910.62s.05.02.07.03c-.02,0-.05-.02-.07-.03ZM734.99,912.2c.12.04.25.09.37.13-.12-.04-.25-.09-.37-.13ZM748.45,916.38s.07.02.11.03c-.04,0-.07-.02-.11-.03ZM752.9,917.47c.06.01.12.03.18.04-.06-.01-.12-.03-.18-.04Z"/>
</svg>